<svg fill="none" viewBox="0 0 60 73" xmlns="http://www.w3.org/2000/svg"><path fill="#4F4F4F" d="M30.49 7.383v.053a7.417 7.417 0 0 1-7.379 7.382 7.455 7.455 0 0 1-7.419-7.419 7.454 7.454 0 0 1 7.416-7.4 7.417 7.417 0 0 1 7.382 7.384Zm-7.214 60.049h-.05a17.732 17.732 0 0 1-8.711-33.176v-5.354a22.506 22.506 0 1 0 28.1 32.119l-2.439-6.087a17.8 17.8 0 0 1-16.9 12.498Zm33.034-10.82h-5.33s-3.249-9.243-4.139-11.685a4.21 4.21 0 0 0-3.942-2.779H29.931v-9.113h12.306a2.96 2.96 0 1 0 0-5.92H29.931s-.711-10.761-6.841-10.761c-4.18 0-5.617 3.4-5.617 7.586v19.008a7.637 7.637 0 0 0 7.592 7.586c.108 0 .229-.065.356-.065.113.035.23.057.349.065h15.837l5.255 13.185h9.444a3.56 3.56 0 0 0 0-7.11l.004.003Z"/></svg>