<svg fill="none" viewBox="0 0 30 22" xmlns="http://www.w3.org/2000/svg"><path fill="#959595" d="M28.302.54H1.993A1.463 1.463 0 0 0 .531 2.002v9.744a1.463 1.463 0 0 0 1.462 1.462h26.31a1.463 1.463 0 0 0 1.461-1.462V2.002A1.462 1.462 0 0 0 28.302.54Zm-15.1 3.41h3.9a.487.487 0 1 1 0 .975h-3.9a.487.487 0 0 1-.003-.974h.003Zm14.13 7.309H2.966a.487.487 0 1 1 0-.974H27.33a.487.487 0 1 1 0 .974Zm0-1.95H2.966a.487.487 0 1 1 0-.973H27.33a.487.487 0 1 1 0 .974Zm-11.959 7.364c-.445-.231-.711-.524-.711-.785s.265-.555.71-.786a.487.487 0 1 0-.447-.865 1.946 1.946 0 0 0-1.239 1.65 1.945 1.945 0 0 0 1.239 1.65c.444.232.71.526.71.787 0 .26-.265.554-.71.785a.49.49 0 0 0-.21.657.487.487 0 0 0 .658.208 1.946 1.946 0 0 0 1.237-1.65 1.946 1.946 0 0 0-1.237-1.651Zm-5.361.974c-.445-.231-.71-.524-.71-.785s.265-.555.71-.786a.487.487 0 0 0-.449-.865 1.945 1.945 0 0 0-1.238 1.65 1.945 1.945 0 0 0 1.238 1.65c.445.232.711.526.711.787 0 .26-.266.554-.71.785a.488.488 0 1 0 .447.865 1.945 1.945 0 0 0 1.237-1.65 1.946 1.946 0 0 0-1.236-1.651Zm10.718 0c-.444-.231-.71-.524-.71-.785s.266-.555.71-.786a.487.487 0 1 0-.447-.865 1.946 1.946 0 0 0-1.237 1.65 1.945 1.945 0 0 0 1.237 1.65c.445.232.71.526.71.787 0 .26-.265.554-.71.785a.486.486 0 0 0-.029.849.487.487 0 0 0 .478.016 1.945 1.945 0 0 0 1.238-1.65 1.946 1.946 0 0 0-1.24-1.651Z"/></svg>