<svg fill="none" viewBox="0 0 68 76" xmlns="http://www.w3.org/2000/svg"><path fill="#4F4F4F" d="M63.277 27.578h-5.758a2.487 2.487 0 0 0-2.5 2.048c-.337 2.021 1.462 2.793 2.665 3.3l.269.115a17.89 17.89 0 0 1-6.036 15.188 3.493 3.493 0 0 0-2.287-.856H18.348a3.49 3.49 0 0 0-2.284.852 17.938 17.938 0 0 1-6.037-15.183l.269-.11c1.2-.513 3.032-1.288 2.665-3.3a2.491 2.491 0 0 0-2.5-2.049h-5.77A4.559 4.559 0 0 0 .157 32.11v1.148a2.437 2.437 0 0 0 3.264 2.3c.265-.1.731-.263 1.728-.633a23.364 23.364 0 0 0 4.929 14.147 19.083 19.083 0 0 0 4.753 4.245v1.331a3.53 3.53 0 0 0 3.514 3.51h12.5v4.82c-4.684.2-9.34.815-13.916 1.836h-.061a5.574 5.574 0 0 0-4.47 5.68 3.14 3.14 0 0 0 6.259.357 73.214 73.214 0 0 1 12.185-1.6v2.584a3.141 3.141 0 1 0 6.279 0v-2.577c4.1.191 8.175.727 12.185 1.6a3.14 3.14 0 0 0 6.259-.357A5.584 5.584 0 0 0 51 64.8a79.594 79.594 0 0 0-13.882-1.829V58.15h12.5a3.53 3.53 0 0 0 3.507-3.51v-1.324a19.06 19.06 0 0 0 4.753-4.245 23.37 23.37 0 0 0 4.925-14.149l1.728.633a2.44 2.44 0 0 0 3.266-2.297V32.11a4.559 4.559 0 0 0-4.52-4.53ZM18.621 44.92a1.37 1.37 0 0 0 1.617 1.17 72.004 72.004 0 0 1 27.489 0 1.375 1.375 0 0 0 1.62-1.19c1.762-15.082 5.3-40.088 5.333-40.354a1.379 1.379 0 0 0-.994-1.516 73.6 73.6 0 0 0-19.7-2.746 73.653 73.653 0 0 0-19.71 2.746 1.38 1.38 0 0 0-.994 1.5l5.339 40.39Zm15.136-32.4a7.93 7.93 0 0 1 11.8-1.753c2.949 2.752 2.949 8.257 0 13.762-2.071 4.128-7.38 8.257-11.8 11.01-4.427-2.753-9.736-6.882-11.8-11.01-2.949-5.5-2.949-11.01 0-13.762a7.93 7.93 0 0 1 11.8 1.752Z"/></svg>