<svg fill="none" viewBox="0 0 86 73" xmlns="http://www.w3.org/2000/svg"><path fill="#4F4F4F" d="M11.518 15.706A11.49 11.49 0 0 0 .933 27.871a10.154 10.154 0 0 0 10.875 9.256 8.816 8.816 0 0 0 7.97-8.744c0-.287-.014-.574-.042-.86a7.448 7.448 0 0 0-8.338-6.584 6.116 6.116 0 0 0-5.21 7.11 5.16 5.16 0 0 0 2.048 3.12 4.441 4.441 0 0 0 3.9.666 3.8 3.8 0 0 0 2.161-1.734 3.175 3.175 0 0 0 0-3.22 2.217 2.217 0 0 0-1.813-1.142 2.021 2.021 0 0 0-1.506.287 2.178 2.178 0 0 0-.884 1.707 1.563 1.563 0 0 0 .451 1.12 1.412 1.412 0 0 1-.468-.222 2.185 2.185 0 0 1-.8-1.226 3.039 3.039 0 0 1 2.631-3.358 4.37 4.37 0 0 1 4.736 3.879 5.7 5.7 0 0 1-5.173 6.081 7.028 7.028 0 0 1-7.424-6.43 8.359 8.359 0 0 1 7.713-8.751h62.994a8.36 8.36 0 0 1 7.713 8.754 7.028 7.028 0 0 1-7.423 6.426 5.7 5.7 0 0 1-5.145-6.087 4.367 4.367 0 0 1 4.736-3.88 3.036 3.036 0 0 1 2.632 3.353c-.117.489-.4.922-.8 1.226-.142.101-.3.176-.468.222a1.574 1.574 0 0 0 .451-1.12 2.182 2.182 0 0 0-.88-1.707 2.015 2.015 0 0 0-1.51-.283 2.217 2.217 0 0 0-1.81 1.144 3.172 3.172 0 0 0 0 3.22 3.8 3.8 0 0 0 2.158 1.734 4.44 4.44 0 0 0 3.9-.666 5.16 5.16 0 0 0 2.046-3.123 6.118 6.118 0 0 0-5.21-7.1 7.454 7.454 0 0 0-8.342 6.58 8.75 8.75 0 0 0-.042.857 8.816 8.816 0 0 0 7.97 8.744 10.155 10.155 0 0 0 10.878-9.263 11.488 11.488 0 0 0-10.58-12.168 3.029 3.029 0 0 0-.37 0H11.886a2.673 2.673 0 0 0-.369 0l.001.017ZM5.608 0a1.578 1.578 0 0 0-1.57 1.571v3.138a1.567 1.567 0 0 0 .46 1.11l6.29 6.275a1.57 1.57 0 0 0 1.11.461h62.737a1.567 1.567 0 0 0 1.11-.461l6.276-6.276a1.567 1.567 0 0 0 .461-1.11V1.57A1.578 1.578 0 0 0 80.908 0h-75.3Zm18.833 25.1a1.577 1.577 0 0 0-1.57 1.571v43.934a1.57 1.57 0 0 0 2.44 1.308l8.925-5.951a1.567 1.567 0 0 0 .683-1.277l.49-28.568v-.028c0-1.024 3.154-1.058 3.137-.027v25.136a1.575 1.575 0 0 0 1.567 1.567c.31 0 .613-.092.871-.263l9.424-6.275a1.571 1.571 0 0 0 .683-1.3V36.096c0-1.048 3.138-1.048 3.138 0v15.706a1.578 1.578 0 0 0 1.571 1.571c.243 0 .483-.057.7-.167l6.276-3.138a1.569 1.569 0 0 0 .867-1.4V26.697a1.575 1.575 0 0 0-1.573-1.568L24.441 25.1Z"/></svg>