<svg fill="none" viewBox="0 0 79 90" xmlns="http://www.w3.org/2000/svg"><path fill="#454545" fill-rule="evenodd" d="M43.698 39.419a226.611 226.611 0 0 1-8.158 5.562l1.622 6.56a1.9 1.9 0 0 1-.343 1.614 1.867 1.867 0 0 1-1.471.72h-2.021v33.573a1.873 1.873 0 1 1-3.743 0V53.876h-2.021a1.866 1.866 0 0 1-1.827-1.49 1.9 1.9 0 0 1 .013-.845l1.622-6.56a66.166 66.166 0 0 1-21.32-18.458 17.593 17.593 0 0 1-.634-17.96A15.72 15.72 0 0 1 18.99.115a18.126 18.126 0 0 1 12.47 5.531A18.126 18.126 0 0 1 43.933.116a15.72 15.72 0 0 1 13.573 8.447 17.415 17.415 0 0 1 1.786 12.013 25.158 25.158 0 0 1-1.454 4.09 11.782 11.782 0 0 1 2.884 2.186 11.745 11.745 0 0 1 8.082-3.584 10.185 10.185 0 0 1 8.794 5.481 11.283 11.283 0 0 1 1.158 7.784c-.547 1.721-1.134 5.931-10.855 12.745-1.356.961-2.86 1.974-4.536 3.071l1.05 4.252a1.231 1.231 0 0 1-.222 1.045 1.212 1.212 0 0 1-.954.466h-1.31v21.753a1.211 1.211 0 0 1-2.334.464 1.213 1.213 0 0 1-.092-.464V58.112h-1.31a1.212 1.212 0 0 1-1.185-.963 1.231 1.231 0 0 1 .008-.548l1.05-4.252a42.876 42.876 0 0 1-13.818-11.97 11.947 11.947 0 0 1-.55-.96Zm16.052 16.24.462-1.946.144.051h.041l.111.024h.39l.11-.024h.042l.138-.051.463 1.94-1.901.006ZM45.668 37.956c.18.391.386.77.62 1.13a43.104 43.104 0 0 0 13.808 11.667l.606.392.194-.121c2.569-1.667 4.734-3.118 6.585-4.466a1.38 1.38 0 0 1 .134-.097h.028a27.694 27.694 0 0 0 7.471-7.378 8.967 8.967 0 0 0 .343-9.155 7.756 7.756 0 0 0-6.67-4.2 10.106 10.106 0 0 0-7.2 3.707 1.211 1.211 0 0 1-1.767 0 10.13 10.13 0 0 0-3.19-2.59 44.546 44.546 0 0 1-10.962 11.111Zm-34.756-1.52.62 1.392c0 .461-.17.906-.478 1.25a1.884 1.884 0 0 1-2.638.154A44 44 0 0 1 .52 30.084a1.884 1.884 0 0 1-.06-1.914c.154-.277.376-.511.644-.68a1.844 1.844 0 0 1 1.91-.059c.275.155.506.377.671.647a40.373 40.373 0 0 0 7.227 8.357Zm2.305-16.8a1.82 1.82 0 0 0-.924.246 1.917 1.917 0 0 0-.895 1.139c-.117.474-.046.976.2 1.4l.23.43a1.85 1.85 0 0 0 1.602.868c.35 0 .695-.097.995-.28a1.94 1.94 0 0 0 .569-2.617 2.375 2.375 0 0 0-.171-.257 1.852 1.852 0 0 0-1.607-.92l.002-.01Zm5.852-12.75a7.895 7.895 0 0 0-3.986 1.093 10.107 10.107 0 0 0-4.954 8.825 1.92 1.92 0 0 0 1.852 1.913h.027a1.928 1.928 0 0 0 1.852-1.894 6.314 6.314 0 0 1 3.083-5.567h.027a3.96 3.96 0 0 1 2.088-.593 6.658 6.658 0 0 1 3.704 1.37c.315.219.69.333 1.074.328a1.808 1.808 0 0 0 1.517-.812c.276-.41.382-.912.297-1.4a1.868 1.868 0 0 0-.787-1.199A10.385 10.385 0 0 0 19.07 6.9v-.014Z" clip-rule="evenodd"/></svg>