<svg fill="none" viewBox="0 0 70 73" xmlns="http://www.w3.org/2000/svg"><path fill="#4F4F4F" d="M63.367 42.103v25.563a4.512 4.512 0 0 1-9.023 0V4.511A4.533 4.533 0 0 1 58.854 0a4.533 4.533 0 0 1 4.512 4.511v7.519h4.51a1.511 1.511 0 0 1 1.5 1.5v27.069a1.51 1.51 0 0 1-1.5 1.5l-4.51.004Zm-19.55 30.072H7.73A7.561 7.561 0 0 1 .21 64.66V7.519A7.561 7.561 0 0 1 7.73 0h36.088a7.561 7.561 0 0 1 7.519 7.519V64.66a7.56 7.56 0 0 1-7.52 7.515ZM7.73 6.015a1.514 1.514 0 0 0-1.5 1.5v57.142a1.514 1.514 0 0 0 1.5 1.5h36.08a1.514 1.514 0 0 0 1.508-1.5V7.519a1.514 1.514 0 0 0-1.507-1.5L7.73 6.015Zm6.015 54.136h24.06c.83 0 1.5-.9 1.5-2.012v-15.62a27.183 27.183 0 0 0-1.662-9.424 22.002 22.002 0 0 1-1.345-7.623v-3.543c0-1.112-.674-2.012-1.5-2.012h-6.015c-.83 0-1.5.9-1.5 2.012v3.55c.006 2.6-.45 5.181-1.345 7.623a27.173 27.173 0 0 0-1.221 4.464 12.801 12.801 0 0 1-.446-3.333v-2.657a1.51 1.51 0 0 0-1.5-1.5h-6.018a1.51 1.51 0 0 0-1.5 1.5v2.652a12.803 12.803 0 0 1-1.345 5.7 15.829 15.829 0 0 0-1.663 7.044v11.676a1.51 1.51 0 0 0 1.5 1.503Zm49.624-20.569h3.883V14.705h-3.883v24.877Z"/></svg>