<svg fill="none" viewBox="0 0 73 73" xmlns="http://www.w3.org/2000/svg"><path fill="#4F4F4F" d="M6.405 72.175H.183V3.81A3.834 3.834 0 0 1 3.993 0h64.552a3.834 3.834 0 0 1 3.81 3.81v68.363h-6.22V35.162H6.412v37.01l-.008.003Zm45.806-20.65-3.228-6.673a5.144 5.144 0 0 0-4.38-2.77H27.59a5.137 5.137 0 0 0-4.374 2.76l-3.222 6.679a2.685 2.685 0 0 0-2.3 2.529v8.058a2.75 2.75 0 0 0 2.3 2.765v4.6a2.557 2.557 0 0 0 2.523 2.523h2.066a2.533 2.533 0 0 0 2.3-2.523v-4.372h18.43v4.374a2.555 2.555 0 0 0 2.523 2.523h2.07a2.557 2.557 0 0 0 2.522-2.523v-4.6a2.75 2.75 0 0 0 2.3-2.765v-8.056a3.18 3.18 0 0 0-2.518-2.529h.001ZM40.704 62.797h-9.2v-2.3h9.2v2.3Zm-13.812-5.978a1.494 1.494 0 0 1-1.385 1.385h-4.133a1.494 1.494 0 0 1-1.379-1.385V54.98a1.48 1.48 0 0 1 1.38-1.379h4.135a1.48 1.48 0 0 1 1.385 1.379l-.003 1.839Zm25.318 0a1.494 1.494 0 0 1-1.379 1.385h-4.148a1.49 1.49 0 0 1-1.368-1.385V54.98a1.48 1.48 0 0 1 1.368-1.38h4.15a1.48 1.48 0 0 1 1.38 1.379l-.003 1.84Zm-29.686-5.518 2.765-5.529a2.528 2.528 0 0 1 2.3-1.379h17.017a2.528 2.528 0 0 1 2.3 1.379l2.765 5.518-27.147.011ZM6.405 32.356h59.721v-2.49H6.406v2.49ZM5.16 26.131h62.216v-7.466H5.16v7.466Zm13.688-12.443h34.843V4.977H18.848v8.711Z"/></svg>