<svg fill="none" viewBox="0 0 70 63" xmlns="http://www.w3.org/2000/svg"><path fill="#4F4F4F" d="M3.903 45.851a23.739 23.739 0 0 0 9.6 2.263c5.843 0 10.579-2.694 15.214-5.33a46.008 46.008 0 0 1 13.838-5.88 44.641 44.641 0 0 1 22.034 1.772 3.732 3.732 0 0 0 1.362.146l-6.574 18.4a8.686 8.686 0 0 1-8.166 5.755H15.948a8.687 8.687 0 0 1-8.2-5.866l-3.845-11.26Zm9.6 1.477a23.736 23.736 0 0 1-11.332-3.17 3.728 3.728 0 0 1 3.526-6.569c8.077 4.333 12.314 1.923 19.324-2.067a52.79 52.79 0 0 1 16.007-6.7 51.798 51.798 0 0 1 25.7 1.928 3.728 3.728 0 1 1-2.14 7.142 44.642 44.642 0 0 0-22.036-1.77 46.01 46.01 0 0 0-13.841 5.876c-4.633 2.636-9.369 5.33-15.212 5.33h.004Zm-8.026-11.1a8.158 8.158 0 0 1 12.444-7.78 8.948 8.948 0 0 1 8.7-7c1.13 0 2.25.214 3.3.634a8.863 8.863 0 0 1 2.4-4.1 8.856 8.856 0 0 1 6.2-2.517 8.9 8.9 0 0 1 4.49 1.215 8.853 8.853 0 0 1 7.552-4.18 8.873 8.873 0 0 1 6 2.33 8.9 8.9 0 0 1 2.648 4.461 8.137 8.137 0 0 1 7.837 8.088 4.472 4.472 0 0 1-.323 2.133 51.7 51.7 0 0 0-2.506-.772c.164-.436.233-.901.2-1.366a5.483 5.483 0 0 0-5.45-5.452c-.229 0-.457.016-.684.045a1.322 1.322 0 0 1-1.48-1.18 6.26 6.26 0 0 0-6.234-5.655 6.24 6.24 0 0 0-5.835 3.988 1.323 1.323 0 0 1-2.096.502 6.261 6.261 0 0 0-10.37 4.537 1.32 1.32 0 0 1-2.073 1.041 6.266 6.266 0 0 0-9.792 5.935 1.321 1.321 0 0 1-2.372.951 5.483 5.483 0 0 0-4.44-2.24 5.527 5.527 0 0 0-5.022 7.826c-.95-.37-1.877-.8-2.773-1.286a3.689 3.689 0 0 0-.325-.155l.004-.003ZM15.78 10.295A5.738 5.738 0 0 1 21.485 16a5.738 5.738 0 0 1-5.705 5.705A5.738 5.738 0 0 1 10.075 16a5.738 5.738 0 0 1 5.705-5.705Zm0 8.767a3.08 3.08 0 0 0 3.064-3.064 3.081 3.081 0 0 0-3.064-3.064 3.08 3.08 0 0 0-3.064 3.064 3.081 3.081 0 0 0 3.064 3.063v.001Zm11.931-12.34a4.647 4.647 0 0 1 4.62 4.62 4.647 4.647 0 0 1-4.62 4.62 4.647 4.647 0 0 1-4.62-4.62 4.647 4.647 0 0 1 4.62-4.62Zm0 6.6a1.991 1.991 0 0 0 1.978-1.978 1.99 1.99 0 0 0-1.978-1.97 1.99 1.99 0 0 0-1.978 1.977 1.99 1.99 0 0 0 1.978 1.971ZM57.625.122a4.647 4.647 0 0 1 4.62 4.62 4.647 4.647 0 0 1-4.62 4.62 4.647 4.647 0 0 1-4.62-4.62A4.647 4.647 0 0 1 57.627.128l-.002-.006Zm0 6.6a1.991 1.991 0 0 0 1.978-1.978 1.991 1.991 0 0 0-1.978-1.978 1.99 1.99 0 0 0-1.978 1.978 1.99 1.99 0 0 0 1.98 1.978h-.002Z"/></svg>