<svg xmlns="http://www.w3.org/2000/svg" fill="none" viewBox="0 0 119 82"><path fill="#B8000C" fill-rule="evenodd" d="M35.884 17.787v39.17l7.759-1.362a5.18 5.18 0 0 0 4.3-3.735l10.975-43.2-18.123 3.262a5.925 5.925 0 0 0-4.911 5.865Z" clip-rule="evenodd"/><path fill="#F2242B" fill-rule="evenodd" d="m9.059 69.245.489-.087v-2.2l-.943.175a.3.3 0 0 0-.228.174l-.017.087-.891.158a.3.3 0 0 0-.245.3v1.071a3.336 3.336 0 0 0-1.433-.268A3.8 3.8 0 0 0 2.3 70.711c-.542 1.065-.734 2.9.507 3.578a5.648 5.648 0 0 0-.752.507c-.7.576-.856 1.239-.1 1.92-.691.314-1.88.995-1.95 1.829-.138 1.819 2.308 2.5 3.74 2.5a4.918 4.918 0 0 0 2.955-.89 2.988 2.988 0 0 0 1.31-2.11c.122-1.344-.856-1.9-1.974-2.2a11.57 11.57 0 0 1-2.236-.683c-.245-.209-.123-.384.034-.558.106.04.218.064.332.07.16.037.325.054.49.052a3.759 3.759 0 0 0 3.338-1.8 3.387 3.387 0 0 0-.035-3.4c-.016-.022-.035-.041-.051-.062a.695.695 0 0 1 .086-.025l1.065-.194Zm96.57 5.429c.16.036.324.054.489.052a3.755 3.755 0 0 0 3.338-1.8 3.352 3.352 0 0 0-.035-3.4c-.016-.022-.034-.04-.051-.062a.929.929 0 0 1 .086-.025l1.555-.279v-2.2l-.943.175a.247.247 0 0 0-.21.174l-.035.088-.891.157a.311.311 0 0 0-.174.108.308.308 0 0 0-.071.192v1.071a3.337 3.337 0 0 0-1.433-.268 3.802 3.802 0 0 0-3.495 2.06c-.542 1.064-.734 2.9.524 3.578a4.06 4.06 0 0 0-.752.506c-.716.576-.873 1.24-.122 1.92-.681.314-1.869 1-1.94 1.833-.139 1.815 2.308 2.5 3.74 2.5a4.92 4.92 0 0 0 2.954-.89 2.984 2.984 0 0 0 1.31-2.119c.123-1.344-.839-1.9-1.975-2.2a11.625 11.625 0 0 1-2.236-.682c-.245-.209-.122-.384.052-.558a.837.837 0 0 0 .315.069ZM5.109 77.781c.42.157.787.349.734.855-.07.68-1.031.838-1.572.838-.735 0-2.22-.314-2.133-1.327.053-.366.612-.733.909-.89.702.108 1.393.284 2.062.524Zm101.481 0c.4.157.786.349.716.855-.069.681-1.031.838-1.555.838-.751 0-2.237-.314-2.149-1.327.052-.366.611-.733.908-.89.708.11 1.404.286 2.08.524Zm-63.3-13.249c-.542.053-1.118.14-1.66.227-.016.223-.05.445-.1.663l-.857 3.561a3.922 3.922 0 0 0-3.073-.038 5.482 5.482 0 0 0-2.587 2.112 7.45 7.45 0 0 0-1.188 4.347c.1.96.629 1.763 1.677 1.763a4.665 4.665 0 0 0 3.776-2.234 6.967 6.967 0 0 0-.158 2.094c.053.367 1.8-.017 2.184-.174a14.84 14.84 0 0 1 .35-2.5l2.237-9.181c.172-.727.009-.692-.598-.64h-.003Zm36.72 6.022h1.69c.472-.017.874-1.082.909-1.519h-2.2c.227-.8.454-1.605.664-2.408a3.92 3.92 0 0 0-1.975.506 4.213 4.213 0 0 0-.926 1.9h-.664c-.472 0-.856 1.065-.91 1.519h1.192c-.07.332-.174.7-.28 1.117-.121.437-.226.873-.35 1.344-.121.454-.243.908-.348 1.344a4.687 4.687 0 0 0-.157 1.606 1.265 1.265 0 0 0 1.4 1.205c.472 0 2.027 0 2.464-.594.36-.482.571-1.058.61-1.658a3.86 3.86 0 0 1-1.8.454.322.322 0 0 1-.33-.225 1.42 1.42 0 0 1 .036-.7l.975-3.891Zm12.548-1.85a10.255 10.255 0 0 0-1.817.105c.002.153-.016.306-.053.454l-.21.82-1.713 7.087a5.933 5.933 0 0 0 1.957-.225c.384-.122.524-.209.61-.594l1.679-7.206c.105-.459-.122-.441-.454-.441Zm-71.266 0a10.064 10.064 0 0 0-1.8.105c-.006.154-.03.306-.07.454l-.192.82-1.714 7.087a5.94 5.94 0 0 0 1.958-.225c.367-.122.524-.209.61-.594l1.679-7.206c.105-.459-.123-.441-.472-.441Zm62.755 5.027a8.073 8.073 0 0 0 2.97-.786 3.001 3.001 0 0 0 1.87-2.374c.123-1.344-.873-1.92-2.062-1.92a5.244 5.244 0 0 0-4.753 3.77 5.438 5.438 0 0 0-.227 3.247c.122.453.407.844.8 1.1.472.288 1.02.428 1.572.4 1.17.09 2.33-.28 3.234-1.03.361-.52.567-1.13.594-1.763a5.37 5.37 0 0 1-2.884.995c-1.114.019-1.202-.715-1.114-1.639Zm-60.03-3.579a6.824 6.824 0 0 0-1.974 3.387c-.3 1.2-.49 3.63 1.328 3.63a4.98 4.98 0 0 0 3.827-2.2c-.052.244-.454 2.164-.14 2.2a6.399 6.399 0 0 0 2.08-.332c.003-.53.068-1.056.192-1.571l1.468-6.2a13.396 13.396 0 0 0-2.726-.419 5.61 5.61 0 0 0-4.054 1.505Zm25.235-1.239a2.462 2.462 0 0 0-1.206-.262h-.017a4.46 4.46 0 0 0-1.608.3 4.637 4.637 0 0 0-1.346.82 6.453 6.453 0 0 0-1.066 1.2c-.3.453-.546.94-.733 1.449a7.15 7.15 0 0 0-.35 1.589 4.199 4.199 0 0 0 .122 1.658c.129.45.412.839.8 1.1a2.76 2.76 0 0 0 1.573.4c.488 0 .975-.059 1.45-.175a4.51 4.51 0 0 0 1.1-.453c.28-.15.539-.339.769-.559.12-.12.216-.262.28-.419a2.01 2.01 0 0 0 .14-.576 1.176 1.176 0 0 0-.018-.436.48.48 0 0 0-.157-.262 5.147 5.147 0 0 1-.717.489 3.736 3.736 0 0 1-.891.418 2.8 2.8 0 0 1-1.014.175 1.083 1.083 0 0 1-.943-.366 1.526 1.526 0 0 1-.193-1.03.336.336 0 0 1 .018-.123v-.122a6.36 6.36 0 0 0 .926-.122 7.86 7.86 0 0 0 1.03-.244 5.69 5.69 0 0 0 1.02-.417c.323-.15.622-.344.892-.576.267-.22.492-.486.664-.786.175-.311.282-.656.315-1.012a1.792 1.792 0 0 0-.157-.978 1.438 1.438 0 0 0-.683-.68Zm23.855-.262a5.132 5.132 0 0 0-4.907 3.648c-.84 2.409-.542 4.888 2.464 4.87A4.95 4.95 0 0 0 74.3 75.65a5.483 5.483 0 0 0 1.136-1.658c1.026-2.304.886-5.341-2.33-5.341Zm42.623 0a5.114 5.114 0 0 0-4.911 3.648c-.856 2.409-.542 4.888 2.447 4.87a4.965 4.965 0 0 0 3.652-1.519 5.821 5.821 0 0 0 1.136-1.658c1.014-2.304.891-5.341-2.324-5.341Zm-21.792 1.694a2.278 2.278 0 0 0 .018 2.461c.437.497.929.942 1.467 1.327.385.332.752.821.158 1.187a2.73 2.73 0 0 1-2.062-.07 2.959 2.959 0 0 1-.525-.244.228.228 0 0 0-.262.07 1.5 1.5 0 0 0-.174 1.379 2.425 2.425 0 0 0 1.869.715 3.84 3.84 0 0 0 3.408-1.781 2.1 2.1 0 0 0-.07-2.373 9.229 9.229 0 0 0-1.52-1.327c-.332-.3-.7-.715-.315-1.152a1.7 1.7 0 0 1 1.73-.139.583.583 0 0 0 .42 0 1.507 1.507 0 0 0 .733-1.135 2.41 2.41 0 0 0-1.747-.611 3.477 3.477 0 0 0-3.128 1.693ZM66.1 68.651a4.177 4.177 0 0 0-3.093 1.519c-.14.157-.3.331-.437.506.1-1.03-.14-2.025-1.468-2.025a4.444 4.444 0 0 0-3.53 2.042h-.053c.018-.157.4-2.042.193-2.042a9.21 9.21 0 0 0-2.237.3 5.74 5.74 0 0 1-.14 1.1l-1.452 6.228a8.608 8.608 0 0 1-.28.873c.42.034 2.185 0 2.465-.4.065-.2.117-.404.157-.611a15.33 15.33 0 0 1 .717-2.565c.367-.856 1.73-3.038 2.8-3.02.629-.018.454.715.35 1.117l-1.294 4.8c-.035.157-.192.7.1.7a9.107 9.107 0 0 0 2.219-.314c.018-.105.053-.4.123-.716.035-.122.052-.244.087-.349l.473-1.849c.262-1.03 1.835-3.4 2.953-3.386.629 0 .455.715.35 1.117l-1.293 4.8c-.035.157-.193.7.1.7a9.228 9.228 0 0 0 2.219-.314c.017-.122.07-.523.157-.908l1.1-4.294c.338-1.298.478-2.991-1.286-3.009Zm-47.918.017c-.437-.035-2.2 0-2.464.4-.078.192-.137.39-.175.594-.16.88-.394 1.743-.7 2.583-.367.838-1.73 3.038-2.813 3.02-.63.018-.455-.716-.35-1.117l1.293-4.8c.053-.158.21-.7-.087-.7a9.376 9.376 0 0 0-2.237.314 6.51 6.51 0 0 1-.157.908l-1.1 4.294c-.332 1.292-.472 2.985 1.293 3a4.469 4.469 0 0 0 3.53-2.042h.052c-.034.14-.42 2.042-.192 2.042a8.649 8.649 0 0 0 2.237-.314c.014-.363.055-.725.123-1.082l1.465-6.244a6.06 6.06 0 0 1 .28-.855l.002-.001Zm97.671 4.468c-.28.925-.979 2.548-2.115 2.548-1.205-.017-.786-1.972-.594-2.723.227-.96.944-2.845 2.167-2.845 1.327.001.75 2.288.541 3.021l.001-.001Zm-42.623 0c-.262.925-.961 2.548-2.115 2.548-1.2-.017-.786-1.972-.594-2.723.245-.96.944-2.845 2.167-2.845 1.345.001.75 2.288.54 3.021l.002-.001Zm-45.787-.418c-.437.855-1.608 2.583-2.726 2.583-.787 0-.4-1.693-.28-2.129.332-1.152 1.17-2.6 2.412-2.915a2.435 2.435 0 0 1 1.415.052 12.645 12.645 0 0 1-.821 2.409Zm12.18-.14c-.453.943-1.677 2.706-2.778 2.706-.891 0-.524-1.8-.367-2.3a4.07 4.07 0 0 1 1.822-2.552 1.823 1.823 0 0 1 2.027.122 12.68 12.68 0 0 1-.703 2.025v-.001ZM6.386 71.13c-.085.855-.542 2.235-1.608 2.252-1 0-.734-1.431-.524-2.025.227-.628.7-1.4 1.433-1.414.699.017.75.646.699 1.187Zm99.331.227c.227-.628.7-1.4 1.433-1.414.7.018.752.646.7 1.187-.087.856-.542 2.235-1.608 2.252-.997 0-.735-1.431-.525-2.025Zm-20.15-1.083c.224-.148.484-.233.752-.244a.563.563 0 0 1 .56.663c-.053.628-.664 1.065-1.19 1.292a4.045 4.045 0 0 1-1.414.314 3.746 3.746 0 0 1 1.293-2.025Zm-37.484.419a1.2 1.2 0 0 1-.314.7c-.244.26-.543.463-.874.594a4.05 4.05 0 0 1-1.416.314c.133-.45.327-.878.577-1.274.194-.295.443-.55.734-.751.21-.148.459-.232.716-.244h.018a.705.705 0 0 1 .367.122c.078.065.139.15.175.245a.868.868 0 0 1 .017.294Zm43.409-2.848c.143.06.298.09.454.087a1.41 1.41 0 0 0 .455-.087c.165-.067.315-.17.437-.3.148-.124.267-.279.349-.454.093-.197.147-.41.158-.628a1.348 1.348 0 0 0-.14-.7.676.676 0 0 0-.367-.332 1.256 1.256 0 0 0-.507-.1h-.018a1.091 1.091 0 0 0-.384.088c-.161.05-.31.133-.437.244a1.06 1.06 0 0 0-.367.454 1.482 1.482 0 0 0-.192.681 1.31 1.31 0 0 0 .157.715.73.73 0 0 0 .402.332Zm-71.126 0c.149.062.31.092.472.087.155-.005.308-.035.454-.087a1.38 1.38 0 0 0 .437-.3c.143-.125.256-.28.332-.454.093-.197.147-.41.158-.628.013-.24-.03-.48-.123-.7a.67.67 0 0 0-.367-.332 1.275 1.275 0 0 0-.524-.1h-.018a1.597 1.597 0 0 0-.821.332 1.4 1.4 0 0 0-.367.454c-.112.21-.172.443-.175.681-.017.248.038.496.158.715a.7.7 0 0 0 .384.332Zm66.373-.123 2.219-1.693c.088-.07.14-.122.14-.157.035-.245-1.171-.489-1.52-.489a.7.7 0 0 0-.35.157c-.3.21-1.415 1.623-1.328 1.886.053.178.629.283.839.3v-.004Zm-38.8-15.866 11.38-44.751A5.16 5.16 0 0 1 63.6 3.369L82.736 0v44.162l-9.926 1.744-21.268 3.739c-1.5.278-3.257.886-3.6 2.205l-.004.006Z" clip-rule="evenodd"/><path fill="#fff" fill-rule="evenodd" d="M78.262 12.271c-8.318 4.416-18.542 11.608-22.578 15.693l-4.142 9.722 1.887-7.419-7.881-7.855a.518.518 0 0 0-.717 0l-5.837 5.833a.516.516 0 0 0 0 .715l11.778 11.763c6.8-8.64 18.42-19.917 28.049-27.614a.491.491 0 0 0 .105-.663.5.5 0 0 0-.664-.175Z" clip-rule="evenodd"/></svg>