<svg xmlns="http://www.w3.org/2000/svg" fill="none" viewBox="0 0 119 82"><path fill="#fff" fill-rule="evenodd" d="m9.059 69.412.489-.087v-2.2l-.943.175a.3.3 0 0 0-.228.174l-.017.087-.891.158a.3.3 0 0 0-.245.3v1.071a3.333 3.333 0 0 0-1.433-.268A3.8 3.8 0 0 0 2.3 70.878c-.542 1.065-.734 2.9.507 3.578a5.638 5.638 0 0 0-.752.507c-.7.576-.856 1.24-.1 1.92-.691.314-1.88.995-1.95 1.83-.138 1.818 2.308 2.5 3.74 2.5a4.919 4.919 0 0 0 2.955-.89 2.99 2.99 0 0 0 1.31-2.11c.122-1.345-.856-1.9-1.974-2.2a11.57 11.57 0 0 1-2.236-.684c-.245-.209-.123-.384.034-.558.106.04.218.064.332.07.16.037.325.055.49.052a3.76 3.76 0 0 0 3.338-1.8 3.387 3.387 0 0 0-.035-3.4.507.507 0 0 0-.028-.034l-.015-.017a.55.55 0 0 1-.008-.01.695.695 0 0 1 .086-.026l1.065-.194Zm96.57 5.43c.16.036.324.053.489.051a3.756 3.756 0 0 0 3.338-1.8 3.353 3.353 0 0 0-.035-3.4l-.03-.036a.72.72 0 0 1-.021-.026.929.929 0 0 1 .086-.025l1.555-.279v-2.2l-.943.175a.247.247 0 0 0-.21.174l-.035.088-.891.157a.31.31 0 0 0-.174.108.308.308 0 0 0-.071.192v1.071a3.334 3.334 0 0 0-1.433-.268 3.803 3.803 0 0 0-3.495 2.06c-.542 1.064-.734 2.9.524 3.578a4.06 4.06 0 0 0-.752.506c-.716.576-.873 1.24-.122 1.92-.681.314-1.869 1-1.94 1.833-.139 1.815 2.308 2.5 3.74 2.5a4.92 4.92 0 0 0 2.954-.89 2.984 2.984 0 0 0 1.31-2.119c.123-1.344-.839-1.9-1.975-2.2a11.625 11.625 0 0 1-2.236-.682c-.245-.209-.122-.384.052-.558a.839.839 0 0 0 .315.07ZM5.109 77.947c.42.157.787.35.734.855-.07.68-1.031.838-1.572.838-.735 0-2.22-.314-2.133-1.327.053-.366.612-.733.909-.89.702.109 1.393.284 2.062.524Zm101.481 0c.4.157.786.35.716.855-.069.681-1.031.838-1.555.838-.751 0-2.237-.314-2.149-1.327.052-.366.611-.733.908-.89a11.7 11.7 0 0 1 2.08.524ZM43.29 64.7c-.542.053-1.118.14-1.66.227-.016.224-.05.445-.1.663l-.857 3.561a3.923 3.923 0 0 0-3.073-.038 5.482 5.482 0 0 0-2.587 2.112 7.45 7.45 0 0 0-1.188 4.347c.1.96.629 1.763 1.677 1.763a4.665 4.665 0 0 0 3.776-2.234 6.967 6.967 0 0 0-.158 2.094c.053.367 1.8-.017 2.184-.174a14.84 14.84 0 0 1 .35-2.5l2.237-9.18c.167-.707.018-.694-.548-.645l-.05.004h-.003Zm36.72 6.022h1.69c.472-.017.874-1.082.909-1.519h-2.2c.227-.8.454-1.605.664-2.408a3.92 3.92 0 0 0-1.975.506 4.212 4.212 0 0 0-.926 1.9h-.664c-.472 0-.856 1.065-.91 1.52h1.192c-.047.223-.11.463-.178.724-.033.126-.067.256-.101.392-.08.283-.151.566-.226.858l-.124.486c-.122.454-.244.908-.35 1.344a4.687 4.687 0 0 0-.156 1.606 1.266 1.266 0 0 0 1.4 1.205c.472 0 2.027 0 2.464-.594.36-.482.571-1.058.61-1.658a3.862 3.862 0 0 1-1.8.454.322.322 0 0 1-.33-.225 1.42 1.42 0 0 1 .036-.7l.975-3.89Zm12.548-1.85a10.246 10.246 0 0 0-1.817.105c.002.153-.016.306-.053.454l-.21.82-1.713 7.087a5.936 5.936 0 0 0 1.957-.225c.384-.122.524-.209.61-.594l1.679-7.206c.1-.442-.106-.441-.418-.44h-.035Zm-71.266 0a10.055 10.055 0 0 0-1.8.105 2 2 0 0 1-.07.454l-.192.82-1.714 7.087a5.942 5.942 0 0 0 1.958-.225c.367-.122.524-.209.61-.594l1.679-7.206c.1-.442-.107-.441-.434-.44h-.037Zm62.755 5.027a8.075 8.075 0 0 0 2.97-.786 3 3 0 0 0 1.87-2.374c.123-1.344-.873-1.92-2.062-1.92a5.244 5.244 0 0 0-4.753 3.77 5.438 5.438 0 0 0-.227 3.247c.122.453.407.844.8 1.1.472.288 1.02.428 1.572.4 1.17.09 2.33-.279 3.234-1.03.361-.52.567-1.13.594-1.763a5.37 5.37 0 0 1-2.884.995c-1.114.02-1.202-.715-1.114-1.639Zm-60.03-3.579a6.824 6.824 0 0 0-1.974 3.387c-.3 1.2-.49 3.63 1.328 3.63a4.98 4.98 0 0 0 3.827-2.2c-.052.244-.454 2.164-.14 2.2a6.402 6.402 0 0 0 2.08-.332c.003-.53.068-1.056.192-1.57l1.468-6.2a13.396 13.396 0 0 0-2.726-.42 5.608 5.608 0 0 0-4.054 1.505Zm25.235-1.239a2.462 2.462 0 0 0-1.206-.262h-.017a4.46 4.46 0 0 0-1.608.3 4.635 4.635 0 0 0-1.346.82 6.453 6.453 0 0 0-1.066 1.2c-.3.453-.546.94-.733 1.45a7.15 7.15 0 0 0-.35 1.588 4.2 4.2 0 0 0 .122 1.658c.129.45.412.839.8 1.1a2.76 2.76 0 0 0 1.573.4c.488 0 .975-.059 1.45-.175a4.513 4.513 0 0 0 1.1-.453c.28-.15.539-.338.769-.559.12-.12.216-.262.28-.419.075-.184.122-.378.14-.576a1.174 1.174 0 0 0-.018-.436.479.479 0 0 0-.157-.262 5.147 5.147 0 0 1-.717.49 3.74 3.74 0 0 1-.891.417 2.8 2.8 0 0 1-1.014.175 1.084 1.084 0 0 1-.943-.366 1.526 1.526 0 0 1-.193-1.03.336.336 0 0 1 .018-.123v-.122a6.36 6.36 0 0 0 .926-.122c.348-.058.693-.14 1.03-.244a5.697 5.697 0 0 0 1.02-.417c.323-.15.622-.344.892-.576.267-.219.492-.485.664-.786.175-.311.282-.656.315-1.012a1.792 1.792 0 0 0-.157-.978 1.438 1.438 0 0 0-.683-.68Zm23.855-.262a5.132 5.132 0 0 0-4.907 3.648c-.84 2.41-.542 4.888 2.464 4.87a4.95 4.95 0 0 0 3.636-1.519 5.484 5.484 0 0 0 1.136-1.658c1.026-2.304.886-5.34-2.33-5.34Zm42.623 0a5.113 5.113 0 0 0-4.911 3.648c-.856 2.41-.542 4.888 2.447 4.87a4.965 4.965 0 0 0 3.652-1.519 5.821 5.821 0 0 0 1.136-1.658c1.014-2.304.891-5.34-2.324-5.34Zm-21.792 1.694a2.279 2.279 0 0 0 .018 2.461c.437.497.929.942 1.467 1.327.385.332.752.821.158 1.187a2.73 2.73 0 0 1-2.062-.07 2.959 2.959 0 0 1-.525-.244.228.228 0 0 0-.262.07 1.5 1.5 0 0 0-.174 1.38 2.423 2.423 0 0 0 1.869.714 3.84 3.84 0 0 0 3.408-1.78 2.1 2.1 0 0 0-.07-2.374 9.229 9.229 0 0 0-1.52-1.327c-.332-.3-.7-.715-.315-1.152a1.699 1.699 0 0 1 1.73-.139.584.584 0 0 0 .42 0 1.506 1.506 0 0 0 .733-1.135 2.41 2.41 0 0 0-1.747-.61 3.476 3.476 0 0 0-3.128 1.692ZM66.1 68.818a4.179 4.179 0 0 0-3.093 1.52l-.072.079a8.47 8.47 0 0 0-.365.426c.1-1.03-.14-2.025-1.468-2.025a4.444 4.444 0 0 0-3.53 2.042h-.053c.003-.028.018-.113.04-.232.096-.543.322-1.81.153-1.81a9.206 9.206 0 0 0-2.237.3 5.74 5.74 0 0 1-.14 1.1l-1.452 6.228a8.608 8.608 0 0 1-.28.873c.42.034 2.185 0 2.465-.4.065-.2.117-.404.157-.61.164-.875.404-1.733.717-2.566.367-.856 1.73-3.038 2.8-3.02.629-.018.454.715.35 1.117l-1.294 4.8-.011.048c-.048.198-.156.652.11.652a9.107 9.107 0 0 0 2.22-.314 3.272 3.272 0 0 0 .017-.112c.02-.142.053-.367.106-.604a2.71 2.71 0 0 0 .04-.164c.014-.065.027-.127.047-.185l.473-1.849c.262-1.03 1.835-3.4 2.953-3.386.629 0 .455.715.35 1.117l-1.293 4.8-.012.05c-.047.197-.156.65.112.65a9.228 9.228 0 0 0 2.219-.314l.003-.027c.02-.146.072-.52.154-.88l1.1-4.295c.338-1.298.478-2.99-1.286-3.009Zm-47.918.017c-.437-.035-2.2 0-2.464.4-.078.192-.137.39-.175.594-.16.88-.394 1.744-.7 2.583-.367.838-1.73 3.038-2.813 3.02-.63.018-.455-.716-.35-1.117l1.293-4.8c.053-.158.21-.7-.087-.7a9.371 9.371 0 0 0-2.237.314 6.51 6.51 0 0 1-.157.908l-1.1 4.294c-.332 1.292-.472 2.985 1.293 3a4.469 4.469 0 0 0 3.53-2.042h.052c-.034.14-.42 2.042-.192 2.042a8.649 8.649 0 0 0 2.237-.314c.014-.363.055-.725.123-1.082l1.465-6.244c.072-.291.166-.577.28-.855h.002Zm97.671 4.468c-.28.925-.979 2.548-2.115 2.548-1.205-.017-.786-1.972-.594-2.723.227-.96.944-2.845 2.167-2.845 1.327.001.75 2.288.541 3.021h.001Zm-42.623 0c-.262.925-.961 2.548-2.115 2.548-1.2-.017-.786-1.972-.594-2.723.245-.96.944-2.845 2.167-2.845 1.345.001.75 2.288.54 3.021h.002Zm-45.787-.418c-.437.855-1.608 2.583-2.726 2.583-.787 0-.4-1.693-.28-2.129.332-1.152 1.17-2.6 2.412-2.915a2.435 2.435 0 0 1 1.415.052 12.65 12.65 0 0 1-.821 2.41Zm12.18-.14c-.453.943-1.677 2.706-2.778 2.706-.891 0-.524-1.8-.367-2.3A4.07 4.07 0 0 1 38.3 70.6a1.823 1.823 0 0 1 2.027.122 12.684 12.684 0 0 1-.703 2.025ZM6.386 71.297c-.085.855-.542 2.235-1.608 2.252-1 0-.734-1.43-.524-2.025.227-.628.7-1.4 1.433-1.414.699.017.75.646.699 1.187Zm99.331.227c.227-.628.7-1.4 1.433-1.414.7.018.752.646.7 1.187-.087.856-.542 2.235-1.608 2.252-.997 0-.735-1.43-.525-2.025Zm-20.15-1.083c.224-.148.484-.232.752-.244a.561.561 0 0 1 .56.663c-.053.628-.664 1.065-1.19 1.292a4.045 4.045 0 0 1-1.414.314 3.746 3.746 0 0 1 1.293-2.025Zm-37.484.42a1.2 1.2 0 0 1-.314.7c-.244.26-.543.462-.874.593-.45.19-.93.296-1.416.314a5.1 5.1 0 0 1 .577-1.274 2.73 2.73 0 0 1 .734-.75c.21-.148.459-.233.716-.245h.018a.704.704 0 0 1 .367.122c.078.065.139.15.175.245a.868.868 0 0 1 .017.294Zm43.409-2.849c.143.061.298.09.454.087a1.41 1.41 0 0 0 .455-.087c.165-.067.315-.17.437-.3a1.32 1.32 0 0 0 .349-.454c.093-.197.147-.41.158-.628a1.348 1.348 0 0 0-.14-.7.676.676 0 0 0-.367-.332 1.254 1.254 0 0 0-.507-.1h-.018a1.091 1.091 0 0 0-.384.088c-.161.05-.31.133-.437.244a1.06 1.06 0 0 0-.367.454 1.481 1.481 0 0 0-.192.681c-.017.249.038.496.157.715a.73.73 0 0 0 .402.332Zm-71.126 0c.149.063.31.092.472.087.155-.005.308-.034.454-.087a1.38 1.38 0 0 0 .437-.3 1.27 1.27 0 0 0 .332-.454c.093-.197.147-.41.158-.628.013-.24-.03-.479-.123-.7a.67.67 0 0 0-.367-.332 1.274 1.274 0 0 0-.524-.1h-.018a1.597 1.597 0 0 0-.821.332 1.398 1.398 0 0 0-.367.454c-.112.21-.172.444-.175.681-.017.249.038.497.158.715a.7.7 0 0 0 .384.332Zm66.373-.123 2.219-1.693c.088-.07.14-.122.14-.157.035-.245-1.171-.489-1.52-.489a.7.7 0 0 0-.35.157c-.3.21-1.415 1.623-1.328 1.886.053.178.629.283.839.3v-.004ZM59.318 7.272l-5.664 22.274 5.264-20.719-18.123 3.262a5.924 5.924 0 0 0-4.911 5.865v39.17l7.759-1.362a5.18 5.18 0 0 0 4.3-3.735l.027-.107c.402-1.252 2.11-1.837 3.572-2.108l21.268-3.739 9.926-1.744V.167L63.6 3.537a5.16 5.16 0 0 0-4.281 3.735Zm-3.634 20.86c4.036-4.086 14.26-11.278 22.578-15.694a.5.5 0 0 1 .664.175.49.49 0 0 1-.105.663C69.19 20.973 57.57 32.25 50.77 40.89L38.995 29.127a.516.516 0 0 1 0-.715l5.837-5.833a.518.518 0 0 1 .717 0l7.88 7.855-1.886 7.42 4.142-9.723Z" clip-rule="evenodd"/></svg>