<svg fill="none" viewBox="0 0 119 73" xmlns="http://www.w3.org/2000/svg"><path fill="#4F4F4F" d="M.86 54.264a12.428 12.428 0 0 1 4.579 2.019 8.686 8.686 0 0 0 10.068 0 12.354 12.354 0 0 1 14.532 0 8.477 8.477 0 0 0 9.932 0 13.02 13.02 0 0 1 5.069-2.195 11.74 11.74 0 0 1 3.883-.06v.1a12.41 12.41 0 0 1 5.27 2.148 8.706 8.706 0 0 0 5.089 1.612h.052a8.578 8.578 0 0 0 4.966-1.612 11.85 11.85 0 0 1 5.069-2.151v-.031a12.345 12.345 0 0 1 9.425 2.177 8.478 8.478 0 0 0 9.934 0 13.018 13.018 0 0 1 5.067-2.195 12.208 12.208 0 0 1 9.326 2.195 8.46 8.46 0 0 0 9.932 0 11.847 11.847 0 0 1 4.357-2.006l.731.619v11.063a2.683 2.683 0 0 1-1.257 2.42 9.16 9.16 0 0 0-1.583 1.027 10.715 10.715 0 0 1-14.395 0 7.343 7.343 0 0 0-7.1-1.544 7.169 7.169 0 0 0-2.832 1.544 10.73 10.73 0 0 1-14.412 0 7.615 7.615 0 0 0-8.21-1.181 1.97 1.97 0 0 1-.24.152 9.156 9.156 0 0 0-1.581 1.029 10.934 10.934 0 0 1-14.562 0 9.459 9.459 0 0 0-1.737-1.133 1.772 1.772 0 0 1-.4-.261 7.031 7.031 0 0 0-4.777-.151 7.188 7.188 0 0 0-2.846 1.545 10.749 10.749 0 0 1-14.393 0 7.674 7.674 0 0 0-10.07 0 10.926 10.926 0 0 1-14.53 0 9.504 9.504 0 0 0-1.737-1.133 2.646 2.646 0 0 1-1.3-2.418V54.885l.682-.621Zm107.309-5.17a8.58 8.58 0 0 0 4.883-1.611 11.852 11.852 0 0 1 5.067-2.148v6a11.85 11.85 0 0 0-5.067 2.148 8.582 8.582 0 0 1-4.883 1.61h-.084a8.583 8.583 0 0 1-4.966-1.61 12.202 12.202 0 0 0-9.325-2.19 13.022 13.022 0 0 0-5.067 2.196 8.45 8.45 0 0 1-4.885 1.605h-.082a8.45 8.45 0 0 1-4.967-1.608 12.348 12.348 0 0 0-7.172-2.367h-.078c-.73-.001-1.457.062-2.175.19v.027a11.855 11.855 0 0 0-5.07 2.148 8.577 8.577 0 0 1-4.881 1.61h-.136a8.7 8.7 0 0 1-5.088-1.612 12.425 12.425 0 0 0-5.271-2.148v-.1a11.985 11.985 0 0 0-1.727-.133h-.056c-.704.002-1.407.067-2.1.193a13.025 13.025 0 0 0-5.07 2.2 8.446 8.446 0 0 1-4.884 1.607h-.082a8.449 8.449 0 0 1-4.965-1.607 12.314 12.314 0 0 0-7.206-2.362h-.063a12.316 12.316 0 0 0-7.263 2.362 8.657 8.657 0 0 1-4.951 1.607h-.086a8.66 8.66 0 0 1-5.031-1.607 12.43 12.43 0 0 0-5.27-2.147v-6a12.43 12.43 0 0 1 5.27 2.147 8.66 8.66 0 0 0 5.03 1.609h.084a8.656 8.656 0 0 0 4.954-1.61 12.315 12.315 0 0 1 7.263-2.36h.06c2.591.009 5.114.835 7.209 2.36a8.449 8.449 0 0 0 4.966 1.608h.082a8.446 8.446 0 0 0 4.883-1.607 13.024 13.024 0 0 1 5.07-2.193c.693-.126 1.396-.19 2.1-.193h.056c.578.003 1.155.047 1.727.133v.1l.1.017.074.013.089.016.088.016.088.017.088.018.087.018.1.022.076.017.087.02.087.02.087.022.087.022.084.022.1.026.1.028.063.018.086.025.086.026.086.026.08.025.1.03.08.027.085.029.085.029.084.03.084.03.077.029.187.072.07.028.084.034.083.034.083.035.07.03.19.084V8.436a8.477 8.477 0 0 1 8.428-8.43 8.477 8.477 0 0 1 8.434 8.423v4.213H64.75V8.429a4.239 4.239 0 0 0-4.213-4.213 4.24 4.24 0 0 0-4.213 4.213V21.07h16.853V8.43A8.477 8.477 0 0 1 81.605.004a8.477 8.477 0 0 1 8.427 8.427v4.213h-4.213V8.43a4.239 4.239 0 0 0-4.213-4.213 4.24 4.24 0 0 0-4.213 4.213v38.175l.093.05.055.03.068.039.058.033.086.05.059.035.067.04.057.035.082.05.06.038.066.042.056.036.08.052.06.04.066.044.054.036.083.057.08.056.046.025.052.037.076.055a8.45 8.45 0 0 0 4.963 1.608h.082a8.45 8.45 0 0 0 4.885-1.607 13.022 13.022 0 0 1 5.067-2.193c.687-.12 1.382-.18 2.079-.18h.077a12.21 12.21 0 0 1 7.171 2.375 8.583 8.583 0 0 0 4.966 1.61l.082-.005Zm-34.963-3.857v-7.565h-16.9v10.916a8.7 8.7 0 0 0 2.977.51h.052a8.577 8.577 0 0 0 4.966-1.612 11.856 11.856 0 0 1 5.068-2.148v-.027a12.334 12.334 0 0 1 3.837-.074Zm-.028-11.527v-8.423H56.324v8.425h8.425l8.429-.002Z"/></svg>