<svg fill="none" viewBox="0 0 88 76" xmlns="http://www.w3.org/2000/svg"><path fill="#494949" fill-rule="evenodd" d="M60.095 63.59a2.317 2.317 0 0 0-.339-1.729l-13.47-20.248V27.855c4.063 3.622 9.118 9.402 9.723 16.111a2.31 2.31 0 0 0 .734 1.49 2.278 2.278 0 0 0 1.75.595 2.282 2.282 0 0 0 1.549-.819 2.316 2.316 0 0 0 .521-1.682c-.935-10.344-9.882-18.347-14.448-21.795a7.214 7.214 0 0 0-1.793-3.391 7.132 7.132 0 0 0-3.27-1.979 7.092 7.092 0 0 0-3.814 0 7.133 7.133 0 0 0-3.27 1.977c-2.206-2.104-9.743-9.727-12.398-16.867A2.297 2.297 0 0 0 20.375.207a2.27 2.27 0 0 0-1.748-.06 2.293 2.293 0 0 0-1.279 1.203 2.32 2.32 0 0 0-.06 1.761c3.589 9.646 13.96 19.005 14.351 19.35.119.105.248.197.387.274a5.927 5.927 0 0 0-.026.584v19.165l-5.33 8.058a2.315 2.315 0 0 0-.098 2.396l6.19 11.08a2.29 2.29 0 0 0 1.37 1.096 2.27 2.27 0 0 0 1.738-.202 2.3 2.3 0 0 0 1.088-1.38 2.319 2.319 0 0 0-.2-1.752l-5.513-9.851 5.406-8.17h5.553l13.748 20.656a2.272 2.272 0 0 0 3.17.64c.504-.339.854-.866.973-1.464ZM39.43 14.97c4.102 0 7.428-3.35 7.428-7.484S43.531 0 39.43 0C35.326 0 32 3.35 32 7.486c0 4.133 3.326 7.484 7.429 7.484Zm36.022-2.424c-.158.473-.456 1.157-.672 1.651l-.044.1c-.067.163-.165.31-.289.434a3.575 3.575 0 0 1-1.372 1.426 3.54 3.54 0 0 1-1.915.472c-1.945 0-3.522-1.323-3.522-2.956 0-1.632 1.577-2.955 3.522-2.955a3.932 3.932 0 0 1 2.22.662 8.138 8.138 0 0 0 .475-3.248c-.028-.506-.094-1.527-.153-2.443l-.094-1.466c-1.368-.003-2.736-.004-4.103-.005h-.001c-1.367 0-2.733-.002-4.099-.005l.037.763c.03.613.069 1.376.076 1.592a12.37 12.37 0 0 1-.596 4.729c-.106.31-.219.675-.336 1.052-.16.51-.326 1.043-.488 1.497-.19 1.482-1.684 2.637-3.501 2.637-1.945 0-3.52-1.324-3.52-2.955 0-1.633 1.575-2.957 3.52-2.957a3.99 3.99 0 0 1 1.937.489c.075-.222.144-.437.205-.634a9.297 9.297 0 0 0 .437-3.529c-.016-.328-.055-.933-.096-1.575-.054-.82-.11-1.702-.127-2.139a1.089 1.089 0 0 1 .306-.94 1.049 1.049 0 0 1 .897-.391c1.585.023 3.196.014 4.81.004 1.898-.01 3.8-.021 5.662.02.786.018 1.048.367 1.18 1.083.148.815.23 2.382.293 3.618.026.504.05.953.073 1.274.105 1.6-.142 3.202-.722 4.695ZM18.766 40.097c.013-.54.032-1.288 0-1.786a10.966 10.966 0 0 0-1.103-4.62c-.143-.288-.333-.693-.547-1.149-.525-1.12-1.19-2.539-1.636-3.236a1.078 1.078 0 0 0-.628-.613 1.062 1.062 0 0 0-.871.063 202.22 202.22 0 0 0-5.246 2.15 241.355 241.355 0 0 1-4.45 1.835 1.047 1.047 0 0 0-.683.705 1.089 1.089 0 0 0 .072.987c.18.398.564 1.191.923 1.93v.003c.28.576.545 1.12.683 1.418a9.292 9.292 0 0 1 .926 3.431c.018.206.035.43.05.665a3.988 3.988 0 0 0-1.977.29c-1.799.744-2.757 2.57-2.141 4.081.615 1.51 2.571 2.131 4.37 1.387 1.68-.695 2.628-2.336 2.245-3.779a40.813 40.813 0 0 0-.114-1.572 48.613 48.613 0 0 1-.085-1.102 12.358 12.358 0 0 0-1.232-4.602c-.088-.197-.41-.888-.67-1.444v-.001l-.322-.69c2.527-1.046 5.058-2.089 7.592-3.13.147.306.384.793.64 1.32v.002c.4.825.846 1.742 1.062 2.2.475.996.742 2.08.784 3.185a3.926 3.926 0 0 0-2.302.237c-1.8.745-2.759 2.572-2.144 4.082.616 1.51 2.573 2.131 4.372 1.387a3.563 3.563 0 0 0 1.594-1.17 3.603 3.603 0 0 0 .732-1.844 1.33 1.33 0 0 0 .103-.512l.003-.108Zm64.091 25.54H5.143c-2.84 0-5.143 2.32-5.143 5.181C0 73.68 2.303 76 5.143 76h77.714C85.697 76 88 73.68 88 70.818c0-2.862-2.302-5.182-5.143-5.182Z" clip-rule="evenodd"/></svg>