<svg fill="none" viewBox="0 0 76 73" xmlns="http://www.w3.org/2000/svg"><path fill="#4F4F4F" fill-rule="evenodd" d="M52.062 10.537V8.805a1.607 1.607 0 0 1 1.6-1.6 1.607 1.607 0 0 1 1.6 1.6v2.155c.104.093.2.193.29.3a2.856 2.856 0 0 1-.29 3.916v47.776a1.6 1.6 0 0 1-.753 1.353h17.439a3.953 3.953 0 0 1 3.934 3.934 3.953 3.953 0 0 1-3.934 3.934H11.307a3.953 3.953 0 0 1-3.934-3.934 3.953 3.953 0 0 1 3.934-3.934h39.061a2.85 2.85 0 0 1-1.268-2.362V50.405l-9.23-5.646-6.142.043-13.994 2.588a2.845 2.845 0 0 1-2.4-.664L4.095 35.031a2.857 2.857 0 0 1-.249-4.01 2.857 2.857 0 0 1 4.011-.25l2.624 2.314 16.555-8.333c.22-.11.452-.192.692-.243l9.751-2.057 14.07-11.583c.159-.129.33-.24.513-.332Zm0 35.014V17.812l-11.337 9.326 1.315 12.287.1.06 9.922 6.066ZM30.44 39.628l-2.908-8.769-12.467 6.28 4.992 4.408 10.383-1.919Zm-1.012-28.676a5.627 5.627 0 0 1 5.6 5.6 5.627 5.627 0 0 1-5.6 5.6 5.627 5.627 0 0 1-5.6-5.6 5.627 5.627 0 0 1 5.6-5.6Zm-19.2 3.011A2.364 2.364 0 0 0 7.717 16.1a2.364 2.364 0 0 0 2.511 2.137 2.372 2.372 0 0 0 2.5-2.032c.95-2.342 1.22-4.905.776-7.394a2.106 2.106 0 0 0-2-1.6h-5.9a1.743 1.743 0 0 0-1.244.515 1.863 1.863 0 0 0-.538 1.348 27.034 27.034 0 0 1-.586 4.76c-.24-.06-.487-.09-.734-.09A2.349 2.349 0 0 0 0 15.88a2.357 2.357 0 0 0 2.5 2.132A2.411 2.411 0 0 0 5 16.136h.018c.544-2.198.89-4.441 1.032-6.702h5.3a10.757 10.757 0 0 1-.285 4.647 3.03 3.03 0 0 0-.841-.12l.004.002Zm37.2-6.82a1.7 1.7 0 0 0 2.31.606 1.72 1.72 0 0 0 1-2.122A9.61 9.61 0 0 0 48.905.552a1.522 1.522 0 0 0-1.8-.417l-3.86 1.86a1.268 1.268 0 0 0-.645.724 1.36 1.36 0 0 0 .073 1.053c.47 1.064.845 2.169 1.117 3.3a1.858 1.858 0 0 0-.507.167 1.715 1.715 0 0 0-.97 2.188 1.71 1.71 0 0 0 2.316.605 1.747 1.747 0 0 0 1.035-2h.014a27.642 27.642 0 0 0-1.436-4.715l3.469-1.668a7.753 7.753 0 0 1 1.276 3.13 2.148 2.148 0 0 0-.588.18 1.7 1.7 0 0 0-.976 2.181l.005.003Z" clip-rule="evenodd"/></svg>