<svg fill="none" viewBox="0 0 58 76" xmlns="http://www.w3.org/2000/svg"><path fill="#4F4F4F" d="M18.62 8.255a7.8 7.8 0 0 0-7.757-7.76 7.8 7.8 0 0 0-7.757 7.753v48.31a10.863 10.863 0 1 0 15.517 0L18.62 8.255Zm-7.757 60.513h-.009a4.643 4.643 0 0 1-1.554-9.02V33.083a1.55 1.55 0 0 1 3.1 0v26.665a4.643 4.643 0 0 1-1.537 9.022v-.002ZM28.9 34.948a4.079 4.079 0 0 1 2.035 2.67c.038 1.146-1.333 2.335-2.156 2.948a2.205 2.205 0 0 0 1.311 3.982c.474.001.937-.151 1.318-.434a8.09 8.09 0 0 0 3.949-6.657 8.429 8.429 0 0 0-4.07-6.253 4.076 4.076 0 0 1-2.035-2.669c-.038-1.147 1.334-2.336 2.156-2.949a2.228 2.228 0 0 0 .463-3.1 2.228 2.228 0 0 0-3.1-.463 8.089 8.089 0 0 0-3.949 6.657 8.428 8.428 0 0 0 4.078 6.268Zm11.3 0a4.079 4.079 0 0 1 2.035 2.67c.038 1.146-1.333 2.335-2.156 2.948a2.205 2.205 0 0 0 1.307 3.982c.474.001.937-.151 1.318-.434a8.09 8.09 0 0 0 3.949-6.657 8.429 8.429 0 0 0-4.07-6.253 4.075 4.075 0 0 1-2.035-2.669c-.038-1.147 1.334-2.336 2.152-2.949a2.228 2.228 0 0 0 .463-3.1 2.228 2.228 0 0 0-3.1-.463 8.089 8.089 0 0 0-3.949 6.657 8.427 8.427 0 0 0 4.086 6.268Zm11.3 0a4.079 4.079 0 0 1 2.035 2.67c.038 1.146-1.333 2.335-2.156 2.948A2.205 2.205 0 1 0 54 44.114a8.09 8.09 0 0 0 3.949-6.657 8.429 8.429 0 0 0-4.07-6.253 4.076 4.076 0 0 1-2.035-2.669c-.037-1.147 1.334-2.336 2.156-2.949a2.228 2.228 0 0 0 .463-3.1 2.228 2.228 0 0 0-3.1-.463 8.089 8.089 0 0 0-3.949 6.657 8.427 8.427 0 0 0 4.086 6.268Z"/></svg>