<svg fill="none" viewBox="0 0 68 73" xmlns="http://www.w3.org/2000/svg"><path fill="#4F4F4F" d="M21.535 3.402A18.677 18.677 0 0 0 6.409 7.765a16.45 16.45 0 0 0-5.52 14.307 15.175 15.175 0 0 0 6.19 10.26 20.039 20.039 0 0 1 6.806 8.273l7.01 17.032c.199.467.508.88.9 1.2l.479 4.526a7.7 7.7 0 0 0 3.453 3.261c.084 1.036-1.482 2.311-2.672 2.436l-.357.038a2.007 2.007 0 0 1-1.962-1.124L9.255 45.87a4.468 4.468 0 0 0-2.64-2.333 4.784 4.784 0 0 0-3.722.527 1.537 1.537 0 1 0 1.337 2.77c.05-.024.098-.05.145-.078a1.86 1.86 0 0 1 1.348-.282 1.484 1.484 0 0 1 .806.807L18 69.384a5.057 5.057 0 0 0 5.018 2.771l.335-.036a6 6 0 0 0 5.42-5.83l-.764-7.25 1.129-4.713a10.922 10.922 0 0 0-.47-6.722c-.17-.2-.283-.445-.323-.706a11.208 11.208 0 0 0-1.762-2.637l-.653-.765a13.764 13.764 0 0 1-2.494-3.95l-.084-.206a4.085 4.085 0 0 1 .018-3.3 3.842 3.842 0 0 1 2.2-1.936c5.784-2.108 23.728-8.019 23.728-8.019l1.537-.162-2.1-19.883-1.537.162-25.664-2.8Zm4.957 56.023.162 1.537-3.075.324-.178-1.685c.33.065.666.082 1 .05l2.09-.226ZM63.867.555a2.826 2.826 0 0 0-2.79-.327L50.255 5.874l2.098 19.881 11.753 3.27a2.86 2.86 0 0 0 2.67-.904 3.659 3.659 0 0 0 1-2.947l-2.32-21.977A3.658 3.658 0 0 0 63.867.555Z"/></svg>