<svg fill="none" viewBox="0 0 71 73" xmlns="http://www.w3.org/2000/svg"><path fill="#4F4F4F" d="m8.213 42.33.024.251.264 3.373a32.506 32.506 0 0 0 9.079 19.924L.937 72.176l2.824-11.594L8.213 42.33Zm3.756-15.428.009-.038 3.79-15.491.041.041c-1.656 5.054 4.116 15.9 14.106 25.89 10.048 10.051 20.979 15.82 25.981 14.078l-17.145 6.487-.174-.052a42.477 42.477 0 0 1-26.149-28.955 40.419 40.419 0 0 1-.442-1.883l-.017-.077Zm58.173 22.4a6.32 6.32 0 0 0-2.791-3.677l-.375-.552a13.741 13.741 0 0 0-9.14-5.913.91.91 0 0 0-.3 1.794c2.69.455 5.14 1.82 6.945 3.865a5.373 5.373 0 0 0-3.641 2.5 3.641 3.641 0 1 0 6.36 3.55 5.279 5.279 0 0 0 .591-2.335 4.453 4.453 0 0 1 .2 4.726.91.91 0 0 0 1.565.93l.025-.041a6.336 6.336 0 0 0 .561-4.843v-.004Zm-4.53.679a1.828 1.828 0 0 1-3.2-1.769v-.014a3.413 3.413 0 0 1 2.465-1.6.924.924 0 0 1 .455.1c.789.444.83 2.301.281 3.287l-.001-.004Zm.276-16.3a1.814 1.814 0 1 1-.011 0h.011Zm-4.552 0a.94.94 0 0 1-.32-.058 28.134 28.134 0 0 0-14.479-1.407l-3.252.552a.91.91 0 0 1-.3-1.794l3.252-.552a29.98 29.98 0 0 1 15.422 1.5.908.908 0 0 1-.328 1.764l.005-.005Zm-16.382-5.459a.915.915 0 0 1-.905-.911v-.005a.912.912 0 0 1 .513-.814l19.116-9.11a.91.91 0 0 1 1.215.43.908.908 0 0 1-.052.878.912.912 0 0 1-.378.337l-19.126 9.096a.908.908 0 0 1-.392.1l.009-.001Zm-6.371-.911a.915.915 0 0 1-.833-1.28.91.91 0 0 1 .222-.307l9.109-8.193a.915.915 0 0 1 1.284.094.915.915 0 0 1-.066 1.259l-9.109 8.193a.91.91 0 0 1-.618.232l.011.002Zm-4.278-.911a.9.9 0 0 1-.835-.563.915.915 0 0 1 0-.696l1.323-3.174a25.465 25.465 0 0 0 1.358-15.392.913.913 0 0 1 .886-1.128.913.913 0 0 1 .886.7v.033a27.273 27.273 0 0 1-1.454 16.483l-1.325 3.174a.913.913 0 0 1-.839.563h-.006.006Zm30.673-2.73a.915.915 0 0 1-.911-.911v-.912a.915.915 0 0 1 .911-.911.915.915 0 0 1 .911.911v.911a.915.915 0 0 1-.911.908h-.011l.011.004Zm3.218-1.333a.897.897 0 0 1-.643-.276l-.643-.643a.915.915 0 0 1 .027-1.287.915.915 0 0 1 1.264 0l.643.643a.915.915 0 0 1 0 1.286.912.912 0 0 1-.654.265l.006.012Zm1.383-5.039a.916.916 0 0 1 .864.91.915.915 0 0 1-.911.911h-.911a.915.915 0 0 1-.911-.911.915.915 0 0 1 .911-.911l.958.001Zm-7.18-.751a.91.91 0 0 1-.64-.276l-.643-.643a.915.915 0 0 1 .021-1.291.915.915 0 0 1 1.264 0l.643.643a.915.915 0 0 1 0 1.286.913.913 0 0 1-.647.276l.002.005Zm5.81-2.45c.241.003.47.102.639.275a.915.915 0 0 1 0 1.264l-.643.643a.911.911 0 0 1-.642.268h-.011a.915.915 0 0 1-.909-.911.912.912 0 0 1 .276-.643l.643-.643a.907.907 0 0 1 .637-.253h.01Zm-3.231 1.38a.915.915 0 0 1-.911-.911v-.911a.915.915 0 0 1 .911-.911.915.915 0 0 1 .911.911v.911a.915.915 0 0 1-.911.911h-.011.011ZM44.043 8.196a1.828 1.828 0 0 1 1.819 1.819 1.828 1.828 0 0 1-1.819 1.819 1.828 1.828 0 0 1-1.819-1.819 1.828 1.828 0 0 1 1.808-1.819h.011ZM21.286.914l1.405 2.849 3.144.458-2.275 2.208.538 3.133-2.813-1.48-2.813 1.48.538-3.133-2.273-2.208 3.144-.458L21.286.914Zm40.051 6.371a.915.915 0 0 1-.911-.911v-.911a.915.915 0 0 1 .911-.916.915.915 0 0 1 .911.911v.911a.915.915 0 0 1-.911.911h-.011l.011.005Zm2.742-4.552a.916.916 0 0 1 .9.911.915.915 0 0 1-.911.911h-.911a.915.915 0 0 1-.911-.911.915.915 0 0 1 .911-.911h.922Zm-4.563 1.822h-.911a.915.915 0 0 1-.911-.911.915.915 0 0 1 .911-.911h.911a.915.915 0 0 1 .911.911.915.915 0 0 1-.912.911h.001ZM35.85 3.647a1.828 1.828 0 0 1-1.819-1.819A1.828 1.828 0 0 1 35.85.009a1.828 1.828 0 0 1 1.819 1.819 1.828 1.828 0 0 1-1.819 1.819h-.013.013Zm25.487-.914a.915.915 0 0 1-.911-.911V.911A.915.915 0 0 1 61.337 0a.915.915 0 0 1 .911.911v.911a.915.915 0 0 1-.911.905h-.011l.011.006Z"/></svg>