<svg fill="none" viewBox="0 0 73 56" xmlns="http://www.w3.org/2000/svg"><path fill="#4F4F4F" d="M36.271 55.976a5.586 5.586 0 0 1-5.559-5.56 5.56 5.56 0 1 1 11.097 0 5.586 5.586 0 0 1-5.538 5.56Zm19.412-21.098-3.889 3.895a2.672 2.672 0 0 1-3.876 0 16.403 16.403 0 0 0-11.653-4.716 17.645 17.645 0 0 0-11.666 4.716 2.672 2.672 0 0 1-3.876 0l-3.889-3.895a2.691 2.691 0 0 1 0-3.892 27.46 27.46 0 0 1 38.848 0 2.682 2.682 0 0 1 0 3.892h.001ZM71.53 19.065l-3.9 3.873a2.687 2.687 0 0 1-3.889 0 39.067 39.067 0 0 0-54.946 0 2.687 2.687 0 0 1-3.889 0l-3.882-3.873a2.535 2.535 0 0 1-.841-1.952 2.52 2.52 0 0 1 .84-1.937A49.246 49.246 0 0 1 36.27.476a48.8 48.8 0 0 1 35.259 14.7 2.51 2.51 0 0 1 .825 1.937 3.008 3.008 0 0 1-.824 1.952Z"/></svg>