<svg fill="none" viewBox="0 0 79 79" xmlns="http://www.w3.org/2000/svg"><path fill="#454545" d="M67.222 11.618a39.318 39.318 0 1 0 8.37 42.876 39.31 39.31 0 0 0-8.37-42.876Zm-46.35 59.708 9.03-8.976a24.933 24.933 0 0 0 18.682.064l8.976 9.044a37.049 37.049 0 0 1-36.688-.132Zm33.822-16.528a21.813 21.813 0 1 1 .1-30.851 21.827 21.827 0 0 1-.1 30.851Zm7.659-6.057a24.907 24.907 0 0 0 .064-18.679l9.03-8.976a37.007 37.007 0 0 1-.118 36.7l-8.976-9.045Zm-46.114-.159-9.041 8.98a37.05 37.05 0 0 1 .132-36.7l8.976 9.044a24.906 24.906 0 0 0-.067 18.675v.001ZM57.784 7.326l-9.04 8.966a24.978 24.978 0 0 0-18.682-.054l-8.976-9.044a37.069 37.069 0 0 1 36.698.132Z"/></svg>