<svg fill="none" viewBox="0 0 73 81" xmlns="http://www.w3.org/2000/svg"><path fill="#454545" d="m71.99 50.173-7.6-7.6a2.56 2.56 0 0 0-1.81-.748h-7.2v-5.27l9.009-9.008a2.552 2.552 0 0 0 .75-1.81V11.6a2.56 2.56 0 0 0-5.12 0v13.077l-4.64 4.638v-2.073a2.56 2.56 0 0 0-2.56-2.56H51.1a14.945 14.945 0 0 0-9.446-11.391l8.92-8.921a2.559 2.559 0 1 0-3.62-3.62l-10.53 10.533L25.987.845a2.558 2.558 0 0 0-4.37 1.81 2.559 2.559 0 0 0 .75 1.81l8.829 8.828a14.943 14.943 0 0 0-9.446 11.39h-1.83a2.56 2.56 0 0 0-2.56 2.56v2.074l-4.64-4.638V11.602a2.56 2.56 0 1 0-5.12 0v14.137c0 .679.27 1.33.75 1.81l9.01 9.007v5.27h-7.2c-.679 0-1.33.269-1.81.748l-7.6 7.6a2.56 2.56 0 0 0 3.62 3.62l6.85-6.848h6.14v2.5L8.129 61.473a2.56 2.56 0 0 0-.53 1.558v14.9a2.56 2.56 0 1 0 5.12 0V63.905l4.765-6.21a19.041 19.041 0 0 0 9.208 14.21c.075.05.154.095.235.136a18.9 18.9 0 0 0 9.446 2.523 18.883 18.883 0 0 0 9.62-2.626 19.04 19.04 0 0 0 9.268-14.246l4.765 6.21v14.026a2.56 2.56 0 1 0 5.12 0v-14.9a2.56 2.56 0 0 0-.53-1.558l-9.231-12.031v-2.5h6.136l6.85 6.848a2.552 2.552 0 0 0 2.79.555 2.552 2.552 0 0 0 1.577-2.362c0-.678-.269-1.328-.747-1.807ZM36.428 17.462a9.8 9.8 0 0 1 9.439 7.22h-18.88a9.8 9.8 0 0 1 9.44-7.22ZM22.479 55.55V29.805h11.333v30.61l-6.037 6.035a13.876 13.876 0 0 1-5.296-10.9Zm10.08 13.358 3.813-3.812 3.81 3.812a13.835 13.835 0 0 1-7.622-.002v.002Zm17.7-13.358a13.87 13.87 0 0 1-5.3 10.9l-6.035-6.035V29.804h11.34L50.26 55.55Z"/></svg>