<svg fill="none" viewBox="0 0 71 70" xmlns="http://www.w3.org/2000/svg"><path fill="#454545" fill-rule="evenodd" d="M26.108 9.439a69.753 69.753 0 0 1 3.676-8.434A1.858 1.858 0 0 1 31.435 0h7.329a1.858 1.858 0 0 1 1.634.974 75.67 75.67 0 0 1 3.917 8.435l2.577 1.04a73.47 73.47 0 0 1 8.7-3.427 1.86 1.86 0 0 1 1.866.437l5.2 5.062a1.858 1.858 0 0 1 .476 1.891 76.284 76.284 0 0 1-3.322 8.66l1.049 2.491a72.91 72.91 0 0 1 8.616 3.578 1.857 1.857 0 0 1 1.037 1.667v7.186a1.858 1.858 0 0 1-1 1.649 77.268 77.268 0 0 1-8.627 3.836l-1.044 2.473a69.607 69.607 0 0 1 3.491 8.48 1.86 1.86 0 0 1-.463 1.923l-5.2 5.077a1.858 1.858 0 0 1-1.834.449 79.394 79.394 0 0 1-8.857-3.254l-2.589 1.038a71.206 71.206 0 0 1-3.658 8.421 1.859 1.859 0 0 1-1.654 1.01H31.74a1.858 1.858 0 0 1-1.633-.971 73.056 73.056 0 0 1-3.907-8.426l-2.589-1.051a74.217 74.217 0 0 1-8.678 3.438 1.858 1.858 0 0 1-1.872-.437l-5.2-5.074a1.858 1.858 0 0 1-.479-1.889 74.003 74.003 0 0 1 3.318-8.66L9.657 43.55a72.972 72.972 0 0 1-8.621-3.588A1.86 1.86 0 0 1 0 38.295V31.11a1.858 1.858 0 0 1 1-1.649 77.186 77.186 0 0 1 8.625-3.828l1.034-2.472a71.21 71.21 0 0 1-3.5-8.489 1.859 1.859 0 0 1 .461-1.924l5.2-5.089a1.858 1.858 0 0 1 1.838-.45 78.986 78.986 0 0 1 8.879 3.277l2.571-1.047Zm11.539-5.723h-5.069a66.083 66.083 0 0 0-3.239 7.736 1.86 1.86 0 0 1-1.054 1.113l-4.076 1.663a1.856 1.856 0 0 1-1.466-.027 75.269 75.269 0 0 0-8.11-3.109l-3.568 3.494a67.632 67.632 0 0 0 3.295 7.674 1.858 1.858 0 0 1 .055 1.555l-1.675 4a1.857 1.857 0 0 1-1.084 1.031 73.543 73.543 0 0 0-7.94 3.4v4.88a69.307 69.307 0 0 0 7.91 3.163 1.859 1.859 0 0 1 1.129 1.042l1.69 4a1.859 1.859 0 0 1-.03 1.514 70.327 70.327 0 0 0-3.138 7.867l3.567 3.479a70.573 70.573 0 0 0 7.894-3.252 1.858 1.858 0 0 1 1.509-.05l4.1 1.663a1.858 1.858 0 0 1 1.04 1.067 69.351 69.351 0 0 0 3.472 7.753h5.077a67.524 67.524 0 0 0 3.226-7.736 1.858 1.858 0 0 1 1.064-1.117l4.093-1.633a1.86 1.86 0 0 1 1.452.029A75.659 75.659 0 0 0 55.863 58l3.567-3.484a66.049 66.049 0 0 0-3.289-7.663 1.858 1.858 0 0 1-.054-1.562l1.69-4a1.857 1.857 0 0 1 1.08-1.025 73.605 73.605 0 0 0 7.943-3.411v-4.88a69.29 69.29 0 0 0-7.908-3.154 1.858 1.858 0 0 1-1.131-1.044l-1.692-4.019a1.856 1.856 0 0 1 .03-1.509 72.691 72.691 0 0 0 3.139-7.871l-3.566-3.469c-2.7.918-5.342 2-7.91 3.241a1.86 1.86 0 0 1-1.5.05l-4.081-1.648a1.858 1.858 0 0 1-1.046-1.066 71.94 71.94 0 0 0-3.488-7.77Zm-2.39 43.17a12.544 12.544 0 0 1-12.568-12.315v-.05a12.568 12.568 0 0 1 25.132.046 12.52 12.52 0 0 1-12.564 12.319h-.016.016Zm-8.851-12.339a8.81 8.81 0 0 0 8.838 8.627h.033a8.777 8.777 0 0 0 8.823-8.606 8.852 8.852 0 0 0-17.7-.021h.006Z" clip-rule="evenodd"/></svg>