<svg fill="none" viewBox="0 0 22 22" xmlns="http://www.w3.org/2000/svg"><path stroke="#4F4F4F" stroke-width="1.5" d="m12.104 3.111.007-.006a5.183 5.183 0 0 1 1.732-1.26 5.216 5.216 0 0 1 2.098-.454 5.006 5.006 0 0 1 3.716 1.65 6.247 6.247 0 0 1 1.562 4.17 6.248 6.248 0 0 1-1.616 4.149l-8.581 9.236-.006.007a.022.022 0 0 1-.016.006l-.01-.001-.302.685.303-.686a.02.02 0 0 1-.006-.004l-.006-.006-8.582-9.238A6.25 6.25 0 0 1 .781 7.21a6.249 6.249 0 0 1 1.56-4.17 4.985 4.985 0 0 1 1.676-1.216 5.018 5.018 0 0 1 2.03-.433 5.188 5.188 0 0 1 3.83 1.714l.005.004.558.608.55.6.553-.598.562-.608Z"/></svg>