<svg fill="none" viewBox="0 0 97 70" xmlns="http://www.w3.org/2000/svg"><path fill="#454545" fill-rule="evenodd" d="M68.606 68.432a1.752 1.752 0 0 1-.135-.72 2.49 2.49 0 0 1 .188-.898l8.254-26.668H64.578c-4.753 0-7.755-5.88-5.443-10.68L71.7 3.335a6.771 6.771 0 0 1 2.495-2.72A7.782 7.782 0 0 1 78.01.04h7.267s1.6-.245 2.1 1.879a4.933 4.933 0 0 1-.66 3.747l-9.43 18.515h14.227c3.863 0 5.895 5.307 3.378 8.7L72.456 68.536a2.833 2.833 0 0 1-2.077.966 1.753 1.753 0 0 1-1.773-1.07ZM47.8 28.41c.472.476.736 1.12.733 1.792a2.531 2.531 0 0 1-2.514 2.54h-43.5A2.531 2.531 0 0 1 0 30.202a2.531 2.531 0 0 1 2.519-2.541h43.495c.67.003 1.313.272 1.785.749Zm7.756-11.02a1.256 1.256 0 0 0-1.248-1.26h-21.06A1.257 1.257 0 0 0 32 17.391a1.256 1.256 0 0 0 1.248 1.264h21.06a1.256 1.256 0 0 0 1.248-1.268Zm-2.544 28.55c.677.7 1.048 1.64 1.032 2.612a3.674 3.674 0 0 1-3.603 3.733h-22.3a3.674 3.674 0 0 1-3.608-3.733 3.674 3.674 0 0 1 3.603-3.733h22.3c.973.018 1.9.42 2.576 1.12Z" clip-rule="evenodd"/></svg>