<svg fill="none" viewBox="0 0 73 73" xmlns="http://www.w3.org/2000/svg"><path fill="#454545" fill-rule="evenodd" d="M72.705 61.345v.005a11.373 11.373 0 0 1-11.36 11.36H11.36A11.373 11.373 0 0 1 0 61.345v-44.3a11.373 11.373 0 0 1 11.36-11.36h3.55v-2.84a2.84 2.84 0 1 1 5.68-.005v2.84h12.78V2.84a2.84 2.84 0 1 1 5.68 0v2.84h12.923V2.84a2.84 2.84 0 1 1 5.68 0v2.84h3.692a11.373 11.373 0 0 1 11.36 11.36v44.305Zm-5.68-2.947V17.045a5.687 5.687 0 0 0-5.68-5.68h-3.692v2.84a2.84 2.84 0 1 1-5.68 0v-2.84H39.051v2.84a2.84 2.84 0 1 1-5.68 0v-2.84H20.59v2.84a2.84 2.84 0 1 1-5.68 0v-2.84h-3.55a5.687 5.687 0 0 0-5.68 5.68l1.41 42.431a5.687 5.687 0 0 0 5.68 5.68h45.339a5.687 5.687 0 0 0 5.68-5.68c0-.937 1.607-1.1 3.236-1.078ZM37.783 41.915c5.02-5.525 17.735-15.252 28.081-21.225v-.004a.591.591 0 0 1 .825.236.7.7 0 0 1-.13.9c-11.976 10.41-26.429 25.663-34.884 37.35L17.028 43.26a.742.742 0 0 1 0-.968l7.26-7.885a.606.606 0 0 1 .891 0l9.8 10.624-2.347 10.034 5.151-13.15Z" clip-rule="evenodd"/></svg>