<svg fill="none" viewBox="0 0 24 24" xmlns="http://www.w3.org/2000/svg"><g clip-path="url(#a)"><path fill="#3A3A3A" d="M21.448.04c-.956 0-1.734.778-1.734 1.735v.649l-2.116 1.21a31.4 31.4 0 0 1-12.2 2.846l-2.447.073-.034.001A2.333 2.333 0 0 0 .818 8.881v4.097a2.33 2.33 0 0 0 2.11 2.328l1.267.03 1.944 7.828c.116.468.535.796 1.018.796h3.068c.402 0 .764-.225.941-.587a1.042 1.042 0 0 0-.111-1.104c-1.592-2.06-2.43-4.244-2.556-6.663a31.4 31.4 0 0 1 8.947 2.525l2.267 1.259v.703c0 .956.778 1.734 1.734 1.734s1.734-.778 1.734-1.734V1.775A1.735 1.735 0 0 0 21.448.04ZM10.326 22.832c.04.052.03.102.014.135a.122.122 0 0 1-.114.071H7.158a.128.128 0 0 1-.123-.097l-1.878-7.56c.321.008.75.022 1.227.048.523.03.926.074 1.19.109.115 2.629 1.04 5.081 2.752 7.294Zm-.959-8.038a32.626 32.626 0 0 0-4.11-.355l-2.254-.053a1.412 1.412 0 0 1-1.262-1.408V8.881c0-.723.538-1.325 1.255-1.407l2.43-.072a32.645 32.645 0 0 0 3.941-.355v7.747Zm8.51 2.521-.034-.017a32.397 32.397 0 0 0-7.554-2.35V6.893a32.377 32.377 0 0 0 7.712-2.43l.02-.009 1.693-.968v14.848l-1.836-1.02Zm4.383 2.778a.813.813 0 0 1-1.624 0V1.775a.813.813 0 0 1 1.624 0v18.318Z"/></g><defs><clipPath id="a"><path fill="#fff" d="M0 0h24v24H0z"/></clipPath></defs></svg>