<svg fill="none" viewBox="0 0 60 44" xmlns="http://www.w3.org/2000/svg"><path fill="#454545" fill-rule="evenodd" d="M60 4.385A4.378 4.378 0 0 0 55.634 0H4.366A4.378 4.378 0 0 0 0 4.385a4.378 4.378 0 0 0 4.366 4.386h51.268A4.378 4.378 0 0 0 60 4.385ZM45 21.93a4.378 4.378 0 0 0-4.366-4.385H4.366A4.378 4.378 0 0 0 0 21.93a4.378 4.378 0 0 0 4.366 4.386h36.267A4.377 4.377 0 0 0 45 21.93Zm15 17.546a4.378 4.378 0 0 0-4.366-4.386H4.366A4.378 4.378 0 0 0 0 39.476a4.378 4.378 0 0 0 4.366 4.386h51.268A4.378 4.378 0 0 0 60 39.476Z" clip-rule="evenodd"/></svg>