<svg fill="none" viewBox="0 0 82 82" xmlns="http://www.w3.org/2000/svg"><path fill="#454545" d="M12.977 70.708A40.775 40.775 0 0 1 0 40.86 41.1 41.1 0 0 1 40.861 0a41.1 41.1 0 0 1 40.86 40.86 40.751 40.751 0 0 1-13.076 29.923l.057.047-1.689 1.418-.432.322a36.97 36.97 0 0 1-1.9 1.451c-.269.2-.54.4-.817.585-.76.53-1.552 1.015-2.35 1.488-.217.127-.433.251-.653.378a42.88 42.88 0 0 1-2.7 1.393l-.335.151a40.308 40.308 0 0 1-9.743 3.054l-.282.052a44.63 44.63 0 0 1-3.24.428l-.409.029a41.071 41.071 0 0 1-3.3.145 41.72 41.72 0 0 1-3.333-.145l-.394-.037c-1.1-.1-2.193-.245-3.259-.434l-.282-.044a41.14 41.14 0 0 1-9.884-3.13l-.211-.1c-.947-.45-1.88-.934-2.8-1.453l-.535-.316a41.3 41.3 0 0 1-2.452-1.557c-.242-.173-.469-.343-.721-.52a43.52 43.52 0 0 1-2.176-1.669c-.085-.073-.178-.129-.264-.2l-1.608-1.358.044-.053Zm38.437-51.743c-2.084-2.344-5.607-3.5-10.531-3.5s-8.492 1.17-10.56 3.527a8.53 8.53 0 0 0-1.969 6.151l.015.194v8.389l-.621.549a2.067 2.067 0 0 0-.7 1.528v5.22a2.069 2.069 0 0 0 .964 1.738l.625.409.16.722a24.16 24.16 0 0 0 4.353 9.014l.4.512v5.442a6.614 6.614 0 0 1-3.437 5.8l-11.28 6.149c.558.407 1.123.8 1.7 1.168l.628.412c.722.449 1.459.874 2.194 1.274.107.057.216.109.318.164.767.4 1.543.773 2.326 1.118h.008l.171.074c.89.385 1.796.732 2.717 1.041l.17.064a37.854 37.854 0 0 0 5.672 1.414l.119.022c.91.142 1.828.253 2.755.334.147.014.3.035.446.035h.029c.917.071 1.851.113 2.761.113.91 0 1.821-.042 2.719-.105.162-.015.326-.02.493-.037.9-.088 1.813-.19 2.711-.33a34.529 34.529 0 0 0 2.964-.61c.942-.244 1.864-.5 2.772-.8l.19-.065a36.985 36.985 0 0 0 5.085-2.146c.159-.089.317-.169.476-.249a43.8 43.8 0 0 0 2.1-1.2l.743-.475a34.87 34.87 0 0 0 1.542-1.06l-12.135-6.089a6.574 6.574 0 0 1-3.643-5.9v-5.593l.45-.515c.316-.364.682-.838 1.062-1.37A26.892 26.892 0 0 0 52 44.19l.309-.929.923-.278a2.109 2.109 0 0 0 1.474-1.967v-5.218a2.045 2.045 0 0 0-.692-1.522l-.621-.55.016-8.588a8.658 8.658 0 0 0-1.995-6.173Zm14.318 49.491a37.092 37.092 0 0 0 12.3-27.595A37.38 37.38 0 0 0 40.861 3.692 37.383 37.383 0 0 0 3.692 40.861 37.112 37.112 0 0 0 15.836 68.31c.29-.2.59-.387.9-.557l11.645-6.348a2.927 2.927 0 0 0 1.519-2.558v-4.139a27.816 27.816 0 0 1-4.513-9.316 5.73 5.73 0 0 1-2.027-4.365v-5.222c.005-1.32.465-2.6 1.301-3.622V25.46a12.288 12.288 0 0 1 2.868-8.891c2.773-3.16 7.254-4.795 13.337-4.795s10.564 1.634 13.339 4.8a12.284 12.284 0 0 1 2.863 8.886v6.723a5.76 5.76 0 0 1 1.3 3.623v5.22a5.721 5.721 0 0 1-3.141 5.114 30.207 30.207 0 0 1-3.849 7.486c-.286.411-.569.786-.838 1.121v4.226a2.9 2.9 0 0 0 1.606 2.6l12.465 6.232c.386.195.76.412 1.121.651Z"/></svg>