<svg fill="none" viewBox="0 0 57 67" xmlns="http://www.w3.org/2000/svg"><path fill="#3A3A3A" d="M11.08 66.38a1.916 1.916 0 0 1-1.022-1.692v-11.12h-2.4a7.283 7.283 0 0 1-7.274-7.28V24.105A7.282 7.282 0 0 1 7.66 16.83h5.93a8.203 8.203 0 0 0 2.346 3.384l.52.447H7.66a3.448 3.448 0 0 0-3.442 3.445v22.183A3.448 3.448 0 0 0 7.66 49.73h4.32a1.914 1.914 0 0 1 1.915 1.916v9.422l16.249-11.009a1.916 1.916 0 0 1 1.075-.32h14.773a3.449 3.449 0 0 0 3.445-3.441v-4.355a8.179 8.179 0 0 0 3.832-1.472v5.827a7.283 7.283 0 0 1-7.277 7.273H31.807L13.056 66.278a1.893 1.893 0 0 1-1.073.32 1.953 1.953 0 0 1-.903-.218Zm36.499-31.036-9.473-5.747-9.473 5.747a1.79 1.79 0 0 1-2.613-.91 1.795 1.795 0 0 1-.065-1.035l2.554-10.788-5.562-4.79-1.15-.989-1.692-1.456a1.795 1.795 0 0 1 1.026-3.148l11.046-.91 4.279-10.217a1.794 1.794 0 0 1 3.31 0l4.279 10.217 11.047.91a1.79 1.79 0 0 1 1.583 2.271c-.096.341-.29.646-.558.877l-8.404 7.229 2.554 10.788a1.786 1.786 0 0 1-.696 1.864l-.124.083c-.28.168-.6.256-.926.256a1.78 1.78 0 0 1-.942-.252Z"/></svg>